<?xml version="1.0" standalone="no"?>
<!DOCTYPE svg PUBLIC "-//W3C//DTD SVG 20010904//EN"
 "http://www.w3.org/TR/2001/REC-SVG-20010904/DTD/svg10.dtd">
<svg version="1.0" xmlns="http://www.w3.org/2000/svg"
 width="418.000000pt" height="315.000000pt" viewBox="0 0 418.000000 315.000000"
 preserveAspectRatio="xMidYMid meet">

<g transform="translate(0.000000,315.000000) scale(0.100000,-0.100000)"
fill="#000000" stroke="none">
<path d="M2172 2928 c-38 -62 -108 -176 -155 -253 -86 -142 -303 -493 -398
-643 -29 -45 -57 -92 -64 -105 -6 -12 -53 -88 -103 -170 -51 -81 -92 -150 -92
-153 0 -3 -20 -34 -45 -68 -25 -35 -45 -66 -45 -70 0 -3 220 -6 488 -6 l488 0
175 283 c277 445 312 505 307 525 -3 10 -70 122 -148 248 -79 126 -151 243
-160 259 -51 91 -163 265 -170 265 -4 0 -39 -51 -78 -112z"/>
<path d="M1503 1283 c-10 -4 -13 -92 -13 -394 l0 -389 25 -12 c19 -8 28 -8 40
2 13 11 15 55 15 338 -1 234 2 328 11 336 8 8 14 7 20 -4 5 -8 55 -89 111
-180 56 -91 145 -237 199 -325 103 -170 115 -181 179 -165 l25 6 3 391 2 391
-27 5 c-15 3 -31 3 -35 0 -5 -2 -8 -154 -8 -338 0 -203 -4 -336 -10 -340 -15
-9 -35 19 -137 190 -80 135 -132 219 -289 473 -12 17 -23 22 -57 21 -23 0 -48
-3 -54 -6z"/>
<path d="M3128 1279 c-5 -4 -8 -17 -6 -30 3 -24 5 -24 138 -29 l135 -5 3 -362
c2 -357 3 -362 23 -368 12 -4 25 -3 30 2 5 5 10 171 11 368 l3 360 132 3 c123
2 132 4 138 23 14 42 -2 44 -306 44 -160 0 -295 -3 -301 -6z"/>
<path d="M763 1261 c-103 -35 -185 -105 -238 -203 -37 -68 -47 -207 -21 -289
34 -106 132 -207 243 -250 75 -28 233 -31 307 -5 165 57 276 209 276 377 0
163 -109 307 -281 369 -70 26 -211 26 -286 1z m291 -70 c126 -57 197 -156 204
-284 5 -79 -9 -133 -49 -193 -110 -164 -333 -211 -497 -105 -114 74 -156 151
-156 281 0 74 4 92 28 137 70 128 177 191 324 192 70 1 92 -3 146 -28z"/>
<path d="M2727 1248 c-8 -13 -70 -113 -138 -223 -213 -345 -320 -526 -315
-533 6 -11 946 -3 946 8 0 5 -26 51 -58 102 -33 51 -101 162 -153 247 -52 84
-127 206 -167 270 -40 64 -75 124 -78 134 -8 23 -21 22 -37 -5z"/>
</g>
</svg>
